{
  "accessors": [
    {
      "bufferView": 2,
      "componentType": 5126,
      "count": 23467,
      "max": [
        11.008424758911133,
        -9.306679725646973,
        37.55020523071289
      ],
      "min": [
        -19.7075252532959,
        -22.261268615722656,
        8.119013786315918
      ],
      "type": "VEC3"
    },
    {
      "bufferView": 2,
      "byteOffset": 281604,
      "componentType": 5126,
      "count": 23467,
      "max": [
        0.9995689988136292,
        0.999992847442627,
        0.9998555779457092
      ],
      "min": [
        -0.9999268651008606,
        -0.9999907612800598,
        -0.9997241497039795
      ],
      "type": "VEC3"
    },
    {
      "bufferView": 1,
      "componentType": 5126,
      "count": 23467,
      "max": [
        0.9999859929084778,
        0.9999970197677612
      ],
      "min": [
        2.4000000848900527e-05,
        -0.0
      ],
      "type": "VEC2"
    },
    {
      "bufferView": 0,
      "componentType": 5125,
      "count": 90834,
      "type": "SCALAR"
    },
    {
      "bufferView": 2,
      "byteOffset": 563208,
      "componentType": 5126,
      "count": 29036,
      "max": [
        11.795912742614746,
        -9.366680145263672,
        38.40419387817383
      ],
      "min": [
        -20.37531089782715,
        -22.228229522705078,
        4.982648849487305
      ],
      "type": "VEC3"
    },
    {
      "bufferView": 2,
      "byteOffset": 911640,
      "componentType": 5126,
      "count": 29036,
      "max": [
        0.9999916553497314,
        0.9999980330467224,
        0.9999430775642395
      ],
      "min": [
        -0.9998920559883118,
        -0.9999995231628418,
        -0.9998705983161926
      ],
      "type": "VEC3"
    },
    {
      "bufferView": 1,
      "byteOffset": 187736,
      "componentType": 5126,
      "count": 29036,
      "max": [
        0.9999939799308777,
        0.9999920129776001
      ],
      "min": [
        9.000000318337698e-06,
        3.000000106112566e-06
      ],
      "type": "VEC2"
    },
    {
      "bufferView": 0,
      "byteOffset": 363336,
      "componentType": 5125,
      "count": 96816,
      "type": "SCALAR"
    },
    {
      "bufferView": 2,
      "byteOffset": 1260072,
      "componentType": 5126,
      "count": 39427,
      "max": [
        11.008424758911133,
        -9.306679725646973,
        37.98417663574219
      ],
      "min": [
        -20.055530548095703,
        -22.217113494873047,
        7.158850193023682
      ],
      "type": "VEC3"
    },
    {
      "bufferView": 2,
      "byteOffset": 1733196,
      "componentType": 5126,
      "count": 39427,
      "max": [
        0.999990701675415,
        0.9999747276306152,
        0.999944806098938
      ],
      "min": [
        -0.9999604821205139,
        -0.9999893307685852,
        -0.9999991059303284
      ],
      "type": "VEC3"
    },
    {
      "bufferView": 1,
      "byteOffset": 420024,
      "componentType": 5126,
      "count": 39427,
      "max": [
        0.9994879961013794,
        0.9999930262565613
      ],
      "min": [
        1.9999999949504854e-06,
        9.999999747378752e-06
      ],
      "type": "VEC2"
    },
    {
      "bufferView": 0,
      "byteOffset": 750600,
      "componentType": 5125,
      "count": 112347,
      "type": "SCALAR"
    }
  ],
  "asset": {
    "extras": {
      "author": "stefanotoneatto (https://sketchfab.com/stefanotoneatto)",
      "license": "CC-BY-4.0 (http://creativecommons.org/licenses/by/4.0/)",
      "source": "https://sketchfab.com/3d-models/mulino-braida-flambro-ud-456a68d177b943e8ab956b6cf4dccb6e",
      "title": "Mulino Braida - Flambro (UD)"
    },
    "generator": "Sketchfab-13.74.0",
    "version": "2.0"
  },
  "bufferViews": [
    {
      "buffer": 0,
      "byteLength": 1199988,
      "name": "floatBufferViews",
      "target": 34963
    },
    {
      "buffer": 0,
      "byteLength": 735440,
      "byteOffset": 1199988,
      "byteStride": 8,
      "name": "floatBufferViews",
      "target": 34962
    },
    {
      "buffer": 0,
      "byteLength": 2206320,
      "byteOffset": 1935428,
      "byteStride": 12,
      "name": "floatBufferViews",
      "target": 34962
    }
  ],
  "buffers": [
    {
      "byteLength": 4141748,
      "uri": "scene.bin"
    }
  ],
  "extensionsUsed": [
    "KHR_materials_unlit"
  ],
  "images": [
    {
      "uri": "textures/uplosd_baseColor.jpeg"
    },
    {
      "uri": "textures/uplosd1_baseColor.jpeg"
    },
    {
      "uri": "textures/uplosd2_baseColor.jpeg"
    }
  ],
  "materials": [
    {
      "doubleSided": true,
      "extensions": {
        "KHR_materials_unlit": {}
      },
      "name": "uplosd",
      "pbrMetallicRoughness": {
        "baseColorTexture": {
          "index": 0
        },
        "metallicFactor": 0.0
      }
    },
    {
      "doubleSided": true,
      "extensions": {
        "KHR_materials_unlit": {}
      },
      "name": "uplosd1",
      "pbrMetallicRoughness": {
        "baseColorTexture": {
          "index": 1
        },
        "metallicFactor": 0.0
      }
    },
    {
      "doubleSided": true,
      "extensions": {
        "KHR_materials_unlit": {}
      },
      "name": "uplosd2",
      "pbrMetallicRoughness": {
        "baseColorTexture": {
          "index": 2
        },
        "metallicFactor": 0.0
      }
    }
  ],
  "meshes": [
    {
      "name": "Object_0",
      "primitives": [
        {
          "attributes": {
            "NORMAL": 1,
            "POSITION": 0,
            "TEXCOORD_0": 2
          },
          "indices": 3,
          "material": 0,
          "mode": 4
        }
      ]
    },
    {
      "name": "Object_1",
      "primitives": [
        {
          "attributes": {
            "NORMAL": 5,
            "POSITION": 4,
            "TEXCOORD_0": 6
          },
          "indices": 7,
          "material": 1,
          "mode": 4
        }
      ]
    },
    {
      "name": "Object_2",
      "primitives": [
        {
          "attributes": {
            "NORMAL": 9,
            "POSITION": 8,
            "TEXCOORD_0": 10
          },
          "indices": 11,
          "material": 2,
          "mode": 4
        }
      ]
    }
  ],
  "nodes": [
    {
      "children": [
        1
      ],
      "matrix": [
        1.0,
        0.0,
        0.0,
        0.0,
        0.0,
        -1.0,
        -4.440892098500626e-16,
        0.0,
        0.0,
        4.440892098500626e-16,
        -1.0,
        0.0,
        0.0,
        0.0,
        0.0,
        1.0
      ],
      "name": "Sketchfab_model"
    },
    {
      "children": [
        2,
        3,
        4
      ],
      "name": "uplosd.obj.cleaner.materialmerger.gles"
    },
    {
      "mesh": 0,
      "name": "Object_2"
    },
    {
      "mesh": 1,
      "name": "Object_3"
    },
    {
      "mesh": 2,
      "name": "Object_4"
    }
  ],
  "samplers": [
    {
      "magFilter": 9729,
      "minFilter": 9987,
      "wrapS": 10497,
      "wrapT": 10497
    }
  ],
  "scene": 0,
  "scenes": [
    {
      "name": "Sketchfab_Scene",
      "nodes": [
        0
      ]
    }
  ],
  "textures": [
    {
      "sampler": 0,
      "source": 0
    },
    {
      "sampler": 0,
      "source": 1
    },
    {
      "sampler": 0,
      "source": 2
    }
  ]
}
